<svg id="Group_145" data-name="Group 145" xmlns="http://www.w3.org/2000/svg" width="55.409" height="55.408" viewBox="0 0 55.409 55.408">
  <path id="Path_595" data-name="Path 595" d="M127.463,56.69a27.7,27.7,0,1,1,27.705-27.705A27.735,27.735,0,0,1,127.463,56.69m0-51.443A23.738,23.738,0,1,0,151.2,28.985,23.765,23.765,0,0,0,127.463,5.247" transform="translate(-99.759 -1.281)" fill="#fff"/>
  <path id="Path_596" data-name="Path 596" d="M132.954,33.49l1.141-7.435h-7.134V21.23c0-2.035,1-4.018,4.191-4.018H134.4v-6.33a39.571,39.571,0,0,0-5.759-.5c-5.875,0-9.714,3.562-9.714,10.008v5.666h-6.531V33.49h6.531V51.463a25.932,25.932,0,0,0,8.038,0V33.49Z" transform="translate(-95.691 1.65)" fill="#fff"/>
</svg>
