<svg id="Group_143" data-name="Group 143" xmlns="http://www.w3.org/2000/svg" width="55.409" height="55.409" viewBox="0 0 55.409 55.409">
  <path id="Path_589" data-name="Path 589" d="M27.705,55.409a27.7,27.7,0,1,1,27.7-27.7,27.735,27.735,0,0,1-27.7,27.7m0-51.443A23.738,23.738,0,1,0,51.443,27.705,23.766,23.766,0,0,0,27.705,3.966" transform="translate(0 0)" fill="#fff"/>
  <path id="Path_590" data-name="Path 590" d="M36.988,30.993a1.6,1.6,0,0,1-2.164.677c-6.271-3.285-13.911-3.616-22.71-.986a1.6,1.6,0,1,1-.918-3.071c9.629-2.879,18.078-2.472,25.116,1.215a1.6,1.6,0,0,1,.676,2.166" transform="translate(3.237 8.283)" fill="#fff"/>
  <path id="Path_591" data-name="Path 591" d="M40.051,25.833a2.008,2.008,0,0,1-2.709.841c-7.177-3.785-17.776-4.319-25.772-1.3a2.005,2.005,0,1,1-1.416-3.752c9.135-3.444,20.813-2.838,29.058,1.507a2.005,2.005,0,0,1,.84,2.708" transform="translate(2.853 6.246)" fill="#fff"/>
  <path id="Path_592" data-name="Path 592" d="M40.4,20.706c-8.6-4.367-22.274-3.919-30.013-1a2.406,2.406,0,0,1-1.7-4.5c8.884-3.35,23.99-3.813,33.887,1.212a2.406,2.406,0,1,1-2.177,4.29" transform="translate(2.297 4.077)" fill="#fff"/>
</svg>
