<svg id="Group_146" data-name="Group 146" xmlns="http://www.w3.org/2000/svg" width="55.41" height="55.409" viewBox="0 0 55.41 55.409">
  <path id="Path_593" data-name="Path 593" d="M178.864,55.409a27.7,27.7,0,1,1,27.705-27.7,27.735,27.735,0,0,1-27.705,27.7m0-51.443A23.738,23.738,0,1,0,202.6,27.705,23.766,23.766,0,0,0,178.864,3.966" transform="translate(-151.159 0)" fill="#fff"/>
  <path id="Path_594" data-name="Path 594" d="M190.056,16.492c0-.149,0-.155-.161-.153a7.2,7.2,0,0,1-1.119-.1c-1.347-.2-5.711-2.493-6.45-6.239a11.123,11.123,0,0,1-.177-1.4c0-.177,0-.177-.177-.18-.04,0-.081,0-.12,0q-2.564,0-5.126,0c-.344,0-.295-.042-.295.3q0,11.113,0,22.224a4.63,4.63,0,0,1-.057.824,4.81,4.81,0,0,1-5.72,3.929,6.478,6.478,0,0,1-1.125-.37l-.089-.082c-.124-.1-.26-.189-.393-.28a4.727,4.727,0,0,1,1.066-8.428,4.261,4.261,0,0,1,1.7-.254,4.966,4.966,0,0,1,1.113.172c.127.036.194-.009.2-.143,0-.046,0-.094,0-.141,0-1.329-.05-4.235-.057-4.241,0-.382,0-.765.009-1.148,0-.111-.053-.13-.145-.141a10.833,10.833,0,0,0-2.07-.046,10.485,10.485,0,0,0-8.792,6.15,10.5,10.5,0,0,0-.432,7.431,10.42,10.42,0,0,0,3.547,5.1,2.535,2.535,0,0,0,.543.375l.26.23a5.48,5.48,0,0,0,.875.535,10.457,10.457,0,0,0,6.006,1.062A10.554,10.554,0,0,0,182.209,31c.021-3.69,0-7.378.007-11.068,0-.089-.05-.213.046-.256.077-.036.152.065.223.112a13.616,13.616,0,0,0,4.458,1.921,12.643,12.643,0,0,0,2.836.341c.3,0,.342-.016.342-.315,0-1.311-.066-4.893-.066-5.241" transform="translate(-147.938 2.712)" fill="#fff"/>
</svg>
