<svg id="Group_144" data-name="Group 144" xmlns="http://www.w3.org/2000/svg" width="55.409" height="55.409" viewBox="0 0 55.409 55.409">
  <path id="Path_587" data-name="Path 587" d="M81.415,55.409a27.7,27.7,0,1,1,27.7-27.7,27.735,27.735,0,0,1-27.7,27.7m0-51.443a23.738,23.738,0,1,0,23.738,23.739A23.766,23.766,0,0,0,81.415,3.966" transform="translate(-53.71 0)" fill="#fff"/>
  <path id="Path_588" data-name="Path 588" d="M95.274,15.625a4.293,4.293,0,0,0-3.031-3.031c-2.675-.717-13.4-.717-13.4-.717s-10.724,0-13.4.717a4.293,4.293,0,0,0-3.031,3.031A44.638,44.638,0,0,0,61.7,23.88a44.638,44.638,0,0,0,.717,8.255,4.293,4.293,0,0,0,3.031,3.031c2.675.717,13.4.717,13.4.717s10.725,0,13.4-.717a4.293,4.293,0,0,0,3.031-3.031,44.558,44.558,0,0,0,.718-8.255,44.558,44.558,0,0,0-.718-8.255m-19.86,13.4V18.736l8.909,5.144Z" transform="translate(-51.139 3.824)" fill="#fff"/>
</svg>
